<?xml version="1.0" encoding="utf-8"?>
<!-- Generator: Adobe Illustrator 16.0.0, SVG Export Plug-In . SVG Version: 6.00 Build 0)  -->
<!DOCTYPE svg PUBLIC "-//W3C//DTD SVG 1.1//EN" "http://www.w3.org/Graphics/SVG/1.1/DTD/svg11.dtd">
<svg version="1.1" id="Layer_1" xmlns="http://www.w3.org/2000/svg" xmlns:xlink="http://www.w3.org/1999/xlink" x="0px" y="0px"
	 width="1400px" height="980px" viewBox="0 0 1400 980" enable-background="new 0 0 1400 980" xml:space="preserve">
<g>
	<g>
		<g>
			<g>
				<rect fill="#58595B" width="1400" height="980"/>
			</g>
		</g>
	</g>
	<g>
		<g>
			<g>
				<path fill="#545557" d="M956.4,590c-19.9,0-38.9,2.7-56.5,7.7c-23.9,6.7-45.1,17.6-62.2,31.4c-11.3,9.1-20.8,19.5-27.9,30.9
					v105.8c9.2,14.7,22.3,27.6,38,38.4v43.9h52.7v-19.8c17.4,4.8,36.2,7.5,55.9,7.5c24.8,0,48.3-4.2,69.3-11.7v24h52.7v-54.1
					c25.1-21.6,40.4-50,40.4-81.1C1118.8,645,1046,590,956.4,590z"/>
			</g>
			<g>
				<path fill="#F1F2F2" d="M1078.4,850.5h-52.7c-1.3,0-2.4-1.1-2.4-2.4v-20.7c-21.1,7.2-43.6,10.8-67,10.8
					c-18.3,0-36.3-2.3-53.5-6.8v16.7c0,1.3-1.1,2.4-2.4,2.4h-52.7c-1.3,0-2.4-1.1-2.4-2.4v-42.6c-15.9-11-28.5-23.9-37.7-38.4
					c-0.2-0.4-0.4-0.8-0.4-1.3V660c0-0.5,0.1-0.9,0.4-1.3c7.2-11.4,16.8-22,28.5-31.5c17.5-14.2,39.3-25.2,63-31.9
					c18.3-5.1,37.5-7.8,57.1-7.8c90.9,0,164.8,56.2,164.8,125.3c0,30.2-14.3,59.4-40.4,82.1v53.1
					C1080.8,849.4,1079.7,850.5,1078.4,850.5z M1028.1,845.7h47.9v-51.8c0-0.7,0.3-1.4,0.8-1.8c25.5-22,39.6-50.1,39.6-79.3
					c0-66.5-71.8-120.5-160-120.5c-19.2,0-38,2.5-55.9,7.6c-23.1,6.5-44.3,17.2-61.3,31c-11.1,9-20.2,19-27.1,29.7v104.5
					c9,14,21.4,26.5,37,37.1c0.6,0.4,1,1.2,1,2v41.5h47.9v-17.4c0-0.7,0.3-1.4,0.9-1.9c0.6-0.4,1.4-0.6,2.1-0.4
					c17.7,4.9,36.3,7.4,55.2,7.4c24,0,47-3.9,68.5-11.6c0.7-0.3,1.5-0.1,2.2,0.3c0.6,0.4,1,1.2,1,1.9V845.7z"/>
			</g>
		</g>
		<g>
			<g>
				<path fill="#F1F2F2" d="M837.6,631.5c-0.4,0-0.9-0.1-1.2-0.3c-0.7-0.4-1.2-1.1-1.2-2v-79c0-1.3,1-2.3,2.3-2.4c0,0,0,0,0,0
					c4.9,0,45.6,1.4,64.7,48.9c0.4,1,0.1,2.2-0.9,2.9c-0.2,0.1-0.5,0.3-0.7,0.3c-23.1,6.5-44.3,17.2-61.3,31
					c-0.1,0.1-0.3,0.2-0.5,0.3C838.4,631.4,838,631.5,837.6,631.5z M839.9,552.7v71.7c16.2-12.3,35.7-22,56.8-28.3
					C880.2,558,849,553.2,839.9,552.7z"/>
			</g>
		</g>
	</g>
	<g>
		<g>
			<g>
				<path fill="#F1F2F2" d="M400.4,326.3H123.2c-16,0-29-13-29-29V146.8c0-16,13-29,29-29h277.2c16,0,29,13,29,29v150.5
					C429.4,313.3,416.4,326.3,400.4,326.3z M123.2,122.6c-13.4,0-24.2,10.9-24.2,24.2v150.5c0,13.4,10.9,24.2,24.2,24.2h277.2
					c13.4,0,24.2-10.9,24.2-24.2V146.8c0-13.4-10.9-24.2-24.2-24.2H123.2z"/>
			</g>
		</g>
		<g>
			<g>
				<path fill="#F1F2F2" d="M374.2,203.5c-16.7,0-30.3-13.6-30.3-30.3c0-16.7,13.6-30.3,30.3-30.3c16.7,0,30.3,13.6,30.3,30.3
					C404.5,189.9,390.9,203.5,374.2,203.5z M374.2,147.7c-14.1,0-25.6,11.5-25.6,25.6c0,14.1,11.5,25.6,25.6,25.6
					c14.1,0,25.6-11.5,25.6-25.6C399.8,159.1,388.3,147.7,374.2,147.7z"/>
			</g>
		</g>
		<g>
			<g>
				<path fill="#F1F2F2" d="M334.6,203.5c-16.7,0-30.3-13.6-30.3-30.3c0-16.7,13.6-30.3,30.3-30.3c16.7,0,30.3,13.6,30.3,30.3
					C364.9,189.9,351.3,203.5,334.6,203.5z M334.6,147.7c-14.1,0-25.6,11.5-25.6,25.6c0,14.1,11.5,25.6,25.6,25.6
					c14.1,0,25.6-11.5,25.6-25.6C360.1,159.1,348.7,147.7,334.6,147.7z"/>
			</g>
		</g>
		<g>
			<g>
				<path fill="#F1F2F2" d="M178,275h-47.9c-1.3,0-2.4-1.1-2.4-2.4s1.1-2.4,2.4-2.4H178c1.3,0,2.4,1.1,2.4,2.4S179.3,275,178,275z"
					/>
			</g>
		</g>
		<g>
			<g>
				<path fill="#F1F2F2" d="M249.8,275h-47.9c-1.3,0-2.4-1.1-2.4-2.4s1.1-2.4,2.4-2.4h47.9c1.3,0,2.4,1.1,2.4,2.4
					S251.1,275,249.8,275z"/>
			</g>
		</g>
		<g>
			<g>
				<path fill="#F1F2F2" d="M321.7,275h-47.9c-1.3,0-2.4-1.1-2.4-2.4s1.1-2.4,2.4-2.4h47.9c1.3,0,2.4,1.1,2.4,2.4S323,275,321.7,275
					z"/>
			</g>
		</g>
		<g>
			<g>
				<path fill="#F1F2F2" d="M393.5,275h-47.9c-1.3,0-2.4-1.1-2.4-2.4s1.1-2.4,2.4-2.4h47.9c1.3,0,2.4,1.1,2.4,2.4
					S394.8,275,393.5,275z"/>
			</g>
		</g>
		<g>
			<g>
				<path fill="#F1F2F2" d="M187.5,182.6h-57.4c-1.3,0-2.4-1.1-2.4-2.4c0-1.3,1.1-2.4,2.4-2.4h57.4c1.3,0,2.4,1.1,2.4,2.4
					C189.9,181.5,188.8,182.6,187.5,182.6z"/>
			</g>
		</g>
		<g>
			<g>
				<path fill="#F1F2F2" d="M162.2,224.4h-32.2c-1.3,0-2.4-1.1-2.4-2.4s1.1-2.4,2.4-2.4h32.2c1.3,0,2.4,1.1,2.4,2.4
					S163.6,224.4,162.2,224.4z"/>
			</g>
		</g>
		<g>
			<g>
				<path fill="#F1F2F2" d="M226.9,224.4h-32.2c-1.3,0-2.4-1.1-2.4-2.4s1.1-2.4,2.4-2.4h32.2c1.3,0,2.4,1.1,2.4,2.4
					S228.2,224.4,226.9,224.4z"/>
			</g>
		</g>
		<g>
			<g>
				<path fill="#F1F2F2" d="M270.3,182.6h-57.4c-1.3,0-2.4-1.1-2.4-2.4c0-1.3,1.1-2.4,2.4-2.4h57.4c1.3,0,2.4,1.1,2.4,2.4
					C272.7,181.5,271.6,182.6,270.3,182.6z"/>
			</g>
		</g>
		<g>
			<g>
				<path fill="#F1F2F2" d="M166.9,235.6c-0.6,0-1.2-0.2-1.7-0.7c-0.9-0.9-0.9-2.4,0-3.4l22.2-22.2c0.9-0.9,2.4-0.9,3.4,0
					c0.9,0.9,0.9,2.4,0,3.4l-22.2,22.2C168.1,235.3,167.5,235.6,166.9,235.6z"/>
			</g>
		</g>
		<g>
			<g>
				<path fill="#F1F2F2" d="M291.5,224.4h-32.2c-1.3,0-2.4-1.1-2.4-2.4s1.1-2.4,2.4-2.4h32.2c1.3,0,2.4,1.1,2.4,2.4
					S292.8,224.4,291.5,224.4z"/>
			</g>
		</g>
	</g>
	<g>
		<g>
			<path fill="#545557" d="M462.2,458.2c0,55.1-44.7,99.7-99.7,99.7c-55.1,0-99.7-44.7-99.7-99.7s44.7-99.7,99.7-99.7
				C417.6,358.5,462.2,403.1,462.2,458.2z"/>
		</g>
		<g>
			<path fill="#F1F2F2" d="M362.5,560.3c-56.3,0-102.1-45.8-102.1-102.1s45.8-102.1,102.1-102.1c56.3,0,102.1,45.8,102.1,102.1
				S418.8,560.3,362.5,560.3z M362.5,360.8c-53.7,0-97.4,43.7-97.4,97.4c0,53.7,43.7,97.4,97.4,97.4c53.7,0,97.4-43.7,97.4-97.4
				C459.9,404.5,416.2,360.8,362.5,360.8z"/>
		</g>
	</g>
	<g>
		<g>
			<g>
				<path fill="#F1F2F2" d="M369.6,474.3v41.2c6.4-0.9,11.8-3.2,16.3-6.8c5.9-4.8,8.8-11,8.8-18.8c0-8.6-3.5-15-10.4-19.4
					c-3.4-2.1-10.8-4.8-22.3-8.1l-2-0.6c-12.9-3.6-21-7-24.3-10.1c-5.3-4.8-7.9-10.9-7.9-18.5c0-8.7,3-15.8,9.1-21.2
					c4.2-3.6,9.2-5.9,15-7v-17.1h5.6v16.3c0.6-0.1,1.2-0.2,1.9-0.2s1.2,0,1.9,0c0.5,0,1,0,1.4,0c0.4,0,0.9,0.1,1.4,0.2v-16.3h5.6
					V405c6.7,1,12.4,3.7,17,8.1c6.3,5.7,9.7,13.6,10.2,23.9h-5c-0.2-8.7-3.1-15.6-8.7-20.6c-3.8-3.5-8.4-5.8-13.6-6.8v43.4l-5.6-1.6
					v-42.8h-3.1c-0.5,0-1.1,0-1.7,0c-0.6,0-1.2,0.1-1.7,0.2v40.3l-5.6-1.6v-38c-4.8,1.1-8.6,3.1-11.6,5.7
					c-5.1,4.4-7.6,10.5-7.6,18.1c0,5.8,2.3,10.8,6.8,15c3.4,3.1,10.8,6.1,22,9c0.2,0.1,0.5,0.2,0.9,0.2c0.4,0,0.8,0.2,1.3,0.4
					c5.9,1.4,10.9,2.9,14.9,4.5c4,1.6,7.2,3,9.6,4.5c7.9,5.1,11.8,12.3,11.8,21.6c0,9.7-3.4,17.5-10.1,23.3
					c-5.3,4.4-12,7.2-20.3,8.4v14.3H364v-14H363c-0.8,0-1.7,0-2.6-0.1c-0.9-0.1-1.9-0.1-2.8-0.2v14.3H352v-15.2
					c-6.1-1.4-11.3-4.2-15.5-8.2c-6.8-6.5-10.6-15.4-11.5-26.8h5.1c0.6,9.8,3.9,17.6,9.9,23.3c3.2,3.2,7.2,5.5,11.9,7v-47l5.6,1.6
					v46.5c1.9,0.3,3.7,0.5,5.6,0.5h0.9V473L369.6,474.3z"/>
			</g>
		</g>
	</g>
	<g>
		<g>
			<g>
				<path fill="#F1F2F2" d="M1118,210.5v46.8c7.3-1.1,13.4-3.6,18.5-7.7c6.7-5.4,10-12.5,10-21.3c0-9.7-3.9-17.1-11.8-22
					c-3.9-2.3-12.3-5.4-25.3-9.1l-2.3-0.7c-14.7-4.1-23.9-7.9-27.6-11.4c-6-5.4-9-12.4-9-20.9c0-9.9,3.5-17.9,10.4-24.1
					c4.8-4.1,10.5-6.7,17.1-7.9v-19.4h6.3v18.5c0.7-0.1,1.4-0.2,2.1-0.2c0.7,0,1.4,0,2.1,0c0.6,0,1.1,0,1.6,0c0.5,0,1,0.1,1.6,0.2
					v-18.5h6.3v19.2c7.6,1.2,14.1,4.2,19.3,9.1c7.1,6.5,11,15.5,11.6,27.1h-5.6c-0.2-9.9-3.5-17.7-9.9-23.4c-4.3-4-9.5-6.6-15.5-7.7
					v49.3l-6.3-1.8v-48.6h-3.5c-0.6,0-1.2,0-1.9,0c-0.7,0-1.3,0.1-1.9,0.2v45.7l-6.3-1.8V137c-5.4,1.3-9.8,3.5-13.2,6.5
					c-5.7,5-8.6,11.9-8.6,20.6c0,6.6,2.6,12.3,7.7,17.1c3.9,3.5,12.2,6.9,25,10.2c0.2,0.1,0.6,0.2,1,0.3c0.4,0.1,0.9,0.2,1.5,0.4
					c6.7,1.6,12.3,3.3,16.9,5.1c4.6,1.8,8.2,3.5,10.9,5.1c8.9,5.8,13.4,13.9,13.4,24.5c0,11-3.8,19.8-11.4,26.4
					c-6,5-13.7,8.2-23,9.5v16.2h-6.3V263h-1.2c-0.9,0-1.9,0-3-0.1c-1-0.1-2.1-0.1-3.2-0.3v16.2h-6.3v-17.2
					c-6.9-1.6-12.8-4.7-17.6-9.3c-7.7-7.4-12.1-17.5-13-30.4h5.8c0.7,11.2,4.5,19.9,11.3,26.4c3.6,3.6,8.2,6.3,13.5,7.9v-53.3
					l6.3,1.8v52.8c2.1,0.4,4.2,0.5,6.3,0.5h1.1V209L1118,210.5z"/>
			</g>
		</g>
	</g>
	<g>
		<g>
			<path fill="#F1F2F2" d="M697.7,850.7c-1.3,0-2.4-1.1-2.4-2.4V374.2c0-1.3,1.1-2.4,2.4-2.4c1.3,0,2.4,1.1,2.4,2.4v474.1
				C700,849.6,699,850.7,697.7,850.7z"/>
		</g>
	</g>
	<g>
		<g>
			<path fill="#F1F2F2" d="M809.8,759.5H770c-1.3,0-2.4-1.1-2.4-2.4v-88.4c0-1.3,1.1-2.4,2.4-2.4h39.8c1.3,0,2.4,1.1,2.4,2.4v88.4
				C812.1,758.4,811.1,759.5,809.8,759.5z M772.4,754.7h35v-83.6h-35V754.7z"/>
		</g>
	</g>
	<g>
		<g>
			<path fill="#F1F2F2" d="M858.5,681c-10.3,0-18.6-8.4-18.6-18.6c0-10.3,8.4-18.6,18.6-18.6c10.3,0,18.6,8.3,18.6,18.6
				C877.1,672.7,868.7,681,858.5,681z M858.5,648.6c-7.6,0-13.9,6.2-13.9,13.9c0,7.6,6.2,13.9,13.9,13.9c7.6,0,13.9-6.2,13.9-13.9
				C872.3,654.8,866.1,648.6,858.5,648.6z"/>
		</g>
	</g>
	<g>
		<g>
			<path fill="#F1F2F2" d="M1007,631.6h-85.4c-1.3,0-2.4-1.1-2.4-2.4c0-1.3,1.1-2.4,2.4-2.4h85.4c1.3,0,2.4,1.1,2.4,2.4
				C1009.4,630.5,1008.3,631.6,1007,631.6z"/>
		</g>
	</g>
	<g>
		<g>
			<path fill="#F1F2F2" d="M1172,715.3h-53.3c-1.3,0-2.4-1.1-2.4-2.4s1.1-2.4,2.4-2.4h53.3c10.3,0,18.7-8.4,18.7-18.7v-17
				c0-10.3-8.4-18.7-18.7-18.7h-5.8c-10.1,0-18.7,5.7-18.7,12.4v14.8c0,1.3-1.1,2.4-2.4,2.4c-1.3,0-2.4-1.1-2.4-2.4v-14.8
				c0-9.5,10.5-17.2,23.4-17.2h5.8c12.9,0,23.4,10.5,23.4,23.4v17C1195.5,704.8,1184.9,715.3,1172,715.3z"/>
		</g>
	</g>
	<g>
		<g>
			<g>
				<g>
					<path fill="#58595B" d="M1053.8,728.9l-82.6,31.7v75.6c0,0,5,70.7,82.6,95.1c77.6-24.4,82.6-95.1,82.6-95.1v-75.6L1053.8,728.9
						z"/>
				</g>
				<g>
					<path fill="#F1F2F2" d="M1053.8,933.7c-0.2,0-0.5,0-0.7-0.1c-78.2-24.6-84.2-96.5-84.3-97.2l0-75.8c0-1,0.6-1.9,1.5-2.2
						l82.6-31.7c0.5-0.2,1.2-0.2,1.7,0l82.6,31.7c0.9,0.4,1.5,1.2,1.5,2.2v75.6c-0.1,0.9-6.1,72.8-84.3,97.4
						C1054.2,933.6,1054,933.7,1053.8,933.7z M973.5,762.2v74c0,0.5,5.9,68.8,80.2,92.6c74.4-23.8,80.2-92.1,80.2-92.8l0-73.8
						l-80.2-30.8L973.5,762.2z"/>
				</g>
			</g>
			<g>
				<g>
					<path fill="#545557" d="M1106.2,778.6h-52.4h-52.4c0,0-24.4,87.8,52.4,118.3C1130.6,866.4,1106.2,778.6,1106.2,778.6z"/>
				</g>
				<g>
					<path fill="#F1F2F2" d="M1053.8,899.3c-0.3,0-0.6-0.1-0.9-0.2C975,868.2,998.8,778.9,999,778c0.3-1,1.2-1.7,2.3-1.7h104.9
						c1.1,0,2,0.7,2.3,1.7c0.3,0.9,24.1,90.2-53.8,121.1C1054.4,899.2,1054.1,899.3,1053.8,899.3z M1003.2,781
						c-3,12.6-17.3,85.7,50.6,113.3c67.9-27.6,53.6-100.8,50.6-113.3H1003.2z"/>
				</g>
			</g>
		</g>
		<g>
			<g>
				<path fill="#F1F2F2" d="M1053.8,899.3c-1.3,0-2.4-1.1-2.4-2.4v-83.8c0-1.3,1.1-2.4,2.4-2.4c1.3,0,2.4,1.1,2.4,2.4v83.8
					C1056.1,898.2,1055.1,899.3,1053.8,899.3z"/>
			</g>
		</g>
		<g>
			<g>
				<path fill="#F1F2F2" d="M1153,846.1h-99.2c-1.3,0-2.4-1.1-2.4-2.4c0-1.3,1.1-2.4,2.4-2.4h99.2c1.3,0,2.4,1.1,2.4,2.4
					C1155.3,845,1154.3,846.1,1153,846.1z"/>
			</g>
		</g>
		<g>
			<g>
				<path fill="#F1F2F2" d="M1103.4,873.2h-49.6c-1.3,0-2.4-1.1-2.4-2.4c0-1.3,1.1-2.4,2.4-2.4h49.6c1.3,0,2.4,1.1,2.4,2.4
					C1105.7,872.1,1104.7,873.2,1103.4,873.2z"/>
			</g>
		</g>
	</g>
	<g>
		<g>
			<g>
				<path fill="#58595B" d="M697.7,107.7c-186.1,0-343.6,122.7-395.9,291.6h11.8c42.7-16.1,90.6-25.2,141.4-25.2
					c49.2,0,95.8,8.5,137.4,23.7C588.6,224.4,697.7,107.7,697.7,107.7z"/>
			</g>
			<g>
				<path fill="#F1F2F2" d="M313.6,401.7h-11.8c-0.8,0-1.5-0.4-1.9-1c-0.5-0.6-0.6-1.4-0.4-2.1c25.8-83.2,78.6-157.9,148.6-210.4
					c72.5-54.3,158.8-82.9,249.6-82.9c0.9,0,1.8,0.6,2.2,1.4c0.4,0.9,0.2,1.9-0.4,2.6c-1.1,1.2-108.3,118-104.7,288.5
					c0,0.8-0.4,1.5-1,2c-0.6,0.5-1.5,0.6-2.2,0.3c-42.9-15.6-88.8-23.6-136.6-23.6c-49.2,0-96.5,8.4-140.5,25
					C314.1,401.7,313.9,401.7,313.6,401.7z M305,397h8.2c44.4-16.7,92.1-25.2,141.8-25.2c47.1,0,92.5,7.6,135,22.7
					c-1.9-152.9,83.8-262.4,102.5-284.3C513.9,112.3,359.1,226.9,305,397z"/>
			</g>
		</g>
		<g>
			<g>
				<g>
					<path fill="#545557" d="M697.7,107.7c0,0-109,116.6-105.3,290.1c31.9-15.2,67.6-23.7,105.3-23.7c38.7,0,75.3,9,107.8,24.9
						C809.2,225.6,697.7,107.7,697.7,107.7z"/>
				</g>
				<g>
					<path fill="#F1F2F2" d="M805.5,401.5c-0.4,0-0.7-0.1-1-0.2c-33.4-16.4-69.4-24.7-106.8-24.7c-36.5,0-71.6,7.9-104.3,23.5
						c-0.7,0.4-1.6,0.3-2.3-0.1c-0.7-0.4-1.1-1.2-1.1-2c-3.7-172.5,104.8-290.7,105.9-291.8c0.4-0.5,1.1-0.8,1.7-0.8c0,0,0,0,0,0
						c0.7,0,1.3,0.3,1.7,0.7c1.1,1.2,112.2,120.6,108.5,293.1c0,0.8-0.4,1.6-1.1,2C806.4,401.3,805.9,401.5,805.5,401.5z
						 M697.7,371.8c36.9,0,72.4,7.9,105.5,23.6c1.9-156.7-91.5-268.2-105.5-284.1c-13.8,15.8-104.9,126.3-103,282.9
						C627.1,379.3,661.7,371.8,697.7,371.8z"/>
				</g>
			</g>
			<g>
				<g>
					<path fill="#58595B" d="M697.7,107.7c0,0,111.6,117.9,107.8,291.4c43.2-15.9,91.7-24.9,143-24.9c51.6,0,100.3,9.1,143.7,25.2
						h1.4C1041.3,230.4,883.8,107.7,697.7,107.7z"/>
				</g>
				<g>
					<path fill="#F1F2F2" d="M1093.6,401.7h-1.4c-0.3,0-0.6-0.1-0.8-0.1c-44.7-16.6-92.8-25-142.9-25c-49.8,0-97.7,8.3-142.2,24.8
						c-0.7,0.3-1.6,0.2-2.2-0.3c-0.6-0.5-1-1.2-1-2c3.6-170.6-106.1-288.5-107.2-289.7c-0.7-0.7-0.8-1.7-0.5-2.6
						c0.4-0.9,1.2-1.4,2.2-1.4c90.8,0,177.1,28.7,249.6,82.9c70.1,52.5,122.9,127.2,148.6,210.4c0.2,0.7,0.1,1.5-0.4,2.1
						C1095.1,401.4,1094.3,401.7,1093.6,401.7z M948.5,371.8c49.5,0,97.1,8.1,141.5,24.2c-54.4-169.5-209-283.7-387.1-285.9
						c19,22.1,106.9,132.6,105,285.6C852.1,379.8,899.3,371.8,948.5,371.8z"/>
				</g>
			</g>
		</g>
	</g>
	<g>
		<g>
			<path fill="#FFFFFF" stroke="#F1F2F2" stroke-linecap="round" stroke-linejoin="round" stroke-miterlimit="10" d="M805.5,399.1"
				/>
		</g>
	</g>
	<g>
		<g>
			<path fill="#F1F2F2" d="M805.5,850.5H592.3c-1.3,0-2.4-1.1-2.4-2.4c0-1.3,1.1-2.4,2.4-2.4h213.2c1.3,0,2.4,1.1,2.4,2.4
				C807.9,849.4,806.8,850.5,805.5,850.5z"/>
		</g>
	</g>
	<g>
		<g>
			<path fill="#F1F2F2" d="M544.7,850.5h-45c-1.3,0-2.4-1.1-2.4-2.4c0-1.3,1.1-2.4,2.4-2.4h45c1.3,0,2.4,1.1,2.4,2.4
				C547.1,849.4,546.1,850.5,544.7,850.5z"/>
		</g>
	</g>
	<g>
		<g>
			<path fill="#F1F2F2" d="M781.7,822H616.1c-1.3,0-2.4-1.1-2.4-2.4s1.1-2.4,2.4-2.4h165.6c1.3,0,2.4,1.1,2.4,2.4S783,822,781.7,822
				z"/>
		</g>
	</g>
	<g>
		<g>
			<path fill="#F1F2F2" d="M211.8,815.5c-0.5,0-0.9-0.1-1.3-0.4c-1.1-0.7-1.4-2.2-0.7-3.3l109.4-166.9c0.4-0.5,0.9-0.9,1.6-1
				c0.6-0.1,1.3,0,1.8,0.4l113.1,82l97.9-149c0.4-0.6,1-0.9,1.6-1c0.7-0.1,1.3,0.1,1.9,0.5l88.8,73.7l128-154c0.8-1,2.3-1.1,3.3-0.3
				c1,0.8,1.1,2.3,0.3,3.3L628.1,655.3c-0.8,1-2.3,1.1-3.3,0.3l-88.6-73.5l-97.8,148.9c-0.4,0.5-0.9,0.9-1.6,1
				c-0.6,0.1-1.3,0-1.8-0.4l-113.1-82l-108,164.8C213.4,815.1,212.6,815.5,211.8,815.5z"/>
		</g>
	</g>
	<g>
		<g>
			<path fill="#545557" d="M240.6,813.1c0,15.9-12.9,28.8-28.8,28.8c-15.9,0-28.8-12.9-28.8-28.8c0-15.9,12.9-28.8,28.8-28.8
				C227.7,784.3,240.6,797.2,240.6,813.1z"/>
		</g>
		<g>
			<path fill="#F1F2F2" d="M211.8,844.3c-17.2,0-31.2-14-31.2-31.2c0-17.2,14-31.2,31.2-31.2c17.2,0,31.2,14,31.2,31.2
				C243,830.3,229,844.3,211.8,844.3z M211.8,786.7c-14.6,0-26.4,11.8-26.4,26.4c0,14.6,11.9,26.4,26.4,26.4
				c14.6,0,26.4-11.8,26.4-26.4C238.3,798.5,226.4,786.7,211.8,786.7z"/>
		</g>
	</g>
	<g>
		<g>
			<path fill="#545557" d="M349,646.2c0,15.9-12.9,28.8-28.8,28.8c-15.9,0-28.8-12.9-28.8-28.8s12.9-28.8,28.8-28.8
				C336.1,617.4,349,630.3,349,646.2z"/>
		</g>
		<g>
			<path fill="#F1F2F2" d="M320.3,677.3c-17.2,0-31.2-14-31.2-31.2c0-17.2,14-31.2,31.2-31.2s31.2,14,31.2,31.2
				C351.4,663.4,337.4,677.3,320.3,677.3z M320.3,619.8c-14.6,0-26.4,11.8-26.4,26.4c0,14.6,11.8,26.4,26.4,26.4
				s26.4-11.8,26.4-26.4C346.7,631.6,334.8,619.8,320.3,619.8z"/>
		</g>
	</g>
	<g>
		<g>
			<path fill="#545557" d="M462.2,728.9c0,15.9-12.9,28.8-28.8,28.8s-28.8-12.9-28.8-28.8c0-15.9,12.9-28.8,28.8-28.8
				S462.2,713,462.2,728.9z"/>
		</g>
		<g>
			<path fill="#F1F2F2" d="M433.4,760c-17.2,0-31.2-14-31.2-31.2c0-17.2,14-31.2,31.2-31.2c17.2,0,31.2,14,31.2,31.2
				C464.6,746.1,450.6,760,433.4,760z M433.4,702.5c-14.6,0-26.4,11.8-26.4,26.4c0,14.6,11.8,26.4,26.4,26.4
				c14.6,0,26.4-11.8,26.4-26.4C459.9,714.3,448,702.5,433.4,702.5z"/>
		</g>
	</g>
	<g>
		<g>
			<path fill="#545557" d="M565.8,579c0,15.9-12.9,28.8-28.8,28.8c-15.9,0-28.8-12.9-28.8-28.8c0-15.9,12.9-28.8,28.8-28.8
				C553,550.2,565.8,563.1,565.8,579z"/>
		</g>
		<g>
			<path fill="#F1F2F2" d="M537.1,610.1c-17.2,0-31.2-14-31.2-31.2c0-17.2,14-31.2,31.2-31.2c17.2,0,31.2,14,31.2,31.2
				C568.2,596.2,554.2,610.1,537.1,610.1z M537.1,552.6c-14.6,0-26.4,11.8-26.4,26.4c0,14.6,11.8,26.4,26.4,26.4
				c14.6,0,26.4-11.8,26.4-26.4C563.5,564.4,551.6,552.6,537.1,552.6z"/>
		</g>
	</g>
	<g>
		<g>
			<circle fill="#545557" cx="625.3" cy="655.5" r="28.8"/>
		</g>
		<g>
			<path fill="#F1F2F2" d="M625.3,686.7c-17.2,0-31.2-14-31.2-31.2c0-17.2,14-31.2,31.2-31.2c17.2,0,31.2,14,31.2,31.2
				C656.5,672.7,642.5,686.7,625.3,686.7z M625.3,629.1c-14.6,0-26.4,11.8-26.4,26.4s11.8,26.4,26.4,26.4
				c14.6,0,26.4-11.8,26.4-26.4S639.9,629.1,625.3,629.1z"/>
		</g>
	</g>
	<g>
		<g>
			<path fill="#545557" d="M784.6,498c0,15.9-12.9,28.8-28.8,28.8S727,513.9,727,498c0-15.9,12.9-28.8,28.8-28.8
				S784.6,482.1,784.6,498z"/>
		</g>
		<g>
			<path fill="#F1F2F2" d="M755.8,529.1c-17.2,0-31.2-14-31.2-31.2s14-31.2,31.2-31.2s31.2,14,31.2,31.2S773,529.1,755.8,529.1z
				 M755.8,471.6c-14.6,0-26.4,11.8-26.4,26.4c0,14.6,11.8,26.4,26.4,26.4s26.4-11.8,26.4-26.4C782.2,483.4,770.3,471.6,755.8,471.6
				z"/>
		</g>
	</g>
	<g>
		<g>
			<path fill="#F1F2F2" d="M964.3,546.4c-1.3,0-2.4-1.1-2.4-2.4V405.1c0-1.3,1.1-2.4,2.4-2.4s2.4,1.1,2.4,2.4V544
				C966.6,545.3,965.6,546.4,964.3,546.4z"/>
		</g>
	</g>
	<g>
		<g>
			<polygon fill="#545557" points="1004,492.3 964.3,561.2 924.5,492.3 			"/>
		</g>
		<g>
			<path fill="#F1F2F2" d="M964.3,563.5L964.3,563.5c-0.8,0-1.6-0.5-2.1-1.2l-39.7-68.8c-0.4-0.7-0.4-1.6,0-2.4
				c0.4-0.7,1.2-1.2,2.1-1.2h79.5c0.8,0,1.6,0.5,2.1,1.2c0.4,0.7,0.4,1.6,0,2.4l-39.7,68.8C965.9,563.1,965.1,563.5,964.3,563.5z
				 M928.6,494.7l35.6,61.7l35.6-61.7H928.6z"/>
		</g>
	</g>
	<g>
		<g>
			<path fill="#F1F2F2" d="M1301.8,552.6h-26.5c-1.3,0-2.4-1.1-2.4-2.4c0-1.3,1.1-2.4,2.4-2.4h24.1v-4.4c0-1.3,1.1-2.4,2.4-2.4
				c1.3,0,2.4,1.1,2.4,2.4v6.8C1304.1,551.5,1303.1,552.6,1301.8,552.6z M1251.5,552.6h-33.3c-1.3,0-2.4-1.1-2.4-2.4
				c0-1.3,1.1-2.4,2.4-2.4h33.3c1.3,0,2.4,1.1,2.4,2.4C1253.9,551.5,1252.8,552.6,1251.5,552.6z M1194.5,552.6h-33.3
				c-1.3,0-2.4-1.1-2.4-2.4c0-1.3,1.1-2.4,2.4-2.4h33.3c1.3,0,2.4,1.1,2.4,2.4C1196.8,551.5,1195.8,552.6,1194.5,552.6z
				 M1137.4,552.6h-33.3c-1.3,0-2.4-1.1-2.4-2.4c0-1.3,1.1-2.4,2.4-2.4h33.3c1.3,0,2.4,1.1,2.4,2.4
				C1139.8,551.5,1138.7,552.6,1137.4,552.6z M1301.8,522c-1.3,0-2.4-1.1-2.4-2.4v-33.3c0-1.3,1.1-2.4,2.4-2.4
				c1.3,0,2.4,1.1,2.4,2.4v33.3C1304.1,521,1303.1,522,1301.8,522z M1301.8,465c-1.3,0-2.4-1.1-2.4-2.4v-33.3c0-1.3,1.1-2.4,2.4-2.4
				c1.3,0,2.4,1.1,2.4,2.4v33.3C1304.1,463.9,1303.1,465,1301.8,465z M1301.8,407.9c-1.3,0-2.4-1.1-2.4-2.4v-33.3
				c0-1.3,1.1-2.4,2.4-2.4c1.3,0,2.4,1.1,2.4,2.4v33.3C1304.1,406.9,1303.1,407.9,1301.8,407.9z M1301.8,350.9
				c-1.3,0-2.4-1.1-2.4-2.4v-33.3c0-1.3,1.1-2.4,2.4-2.4c1.3,0,2.4,1.1,2.4,2.4v33.3C1304.1,349.8,1303.1,350.9,1301.8,350.9z
				 M1301.8,293.9c-1.3,0-2.4-1.1-2.4-2.4v-33.3c0-1.3,1.1-2.4,2.4-2.4c1.3,0,2.4,1.1,2.4,2.4v33.3
				C1304.1,292.8,1303.1,293.9,1301.8,293.9z M1301.8,236.8c-1.3,0-2.4-1.1-2.4-2.4v-33.3c0-1.3,1.1-2.4,2.4-2.4
				c1.3,0,2.4,1.1,2.4,2.4v33.3C1304.1,235.7,1303.1,236.8,1301.8,236.8z M1283.4,198.1h-33.3c-1.3,0-2.4-1.1-2.4-2.4
				c0-1.3,1.1-2.4,2.4-2.4h33.3c1.3,0,2.4,1.1,2.4,2.4C1285.8,197.1,1284.7,198.1,1283.4,198.1z M1226.4,198.1h-33.3
				c-1.3,0-2.4-1.1-2.4-2.4c0-1.3,1.1-2.4,2.4-2.4h33.3c1.3,0,2.4,1.1,2.4,2.4C1228.7,197.1,1227.7,198.1,1226.4,198.1z"/>
		</g>
	</g>
	<g>
		<g>
			<path fill="#F1F2F2" d="M1246.9,846.1h-33.3c-1.3,0-2.4-1.1-2.4-2.4c0-1.3,1.1-2.4,2.4-2.4h33.3c1.3,0,2.4,1.1,2.4,2.4
				C1249.2,845,1248.2,846.1,1246.9,846.1z M1260.6,836c-1.3,0-2.4-1.1-2.4-2.4v-33.3c0-1.3,1.1-2.4,2.4-2.4c1.3,0,2.4,1.1,2.4,2.4
				v33.3C1262.9,834.9,1261.9,836,1260.6,836z M1260.6,778.9c-1.3,0-2.4-1.1-2.4-2.4v-33.3c0-1.3,1.1-2.4,2.4-2.4
				c1.3,0,2.4,1.1,2.4,2.4v33.3C1262.9,777.9,1261.9,778.9,1260.6,778.9z M1260.6,721.9c-1.3,0-2.4-1.1-2.4-2.4v-33.3
				c0-1.3,1.1-2.4,2.4-2.4c1.3,0,2.4,1.1,2.4,2.4v33.3C1262.9,720.8,1261.9,721.9,1260.6,721.9z M1260.6,664.9
				c-1.3,0-2.4-1.1-2.4-2.4v-33.3c0-1.3,1.1-2.4,2.4-2.4c1.3,0,2.4,1.1,2.4,2.4v33.3C1262.9,663.8,1261.9,664.9,1260.6,664.9z"/>
		</g>
	</g>
	<g>
		<g>
			<path fill="#F1F2F2" d="M259.4,656.2h-23.1c-1.3,0-2.4-1.1-2.4-2.4c0-1.3,1.1-2.4,2.4-2.4h23.1c1.3,0,2.4,1.1,2.4,2.4
				C261.7,655.1,260.7,656.2,259.4,656.2z M212.5,656.2h-33.3c-1.3,0-2.4-1.1-2.4-2.4c0-1.3,1.1-2.4,2.4-2.4h33.3
				c1.3,0,2.4,1.1,2.4,2.4C214.9,655.1,213.9,656.2,212.5,656.2z M166.9,644.8c-1.3,0-2.4-1.1-2.4-2.4v-33.3c0-1.3,1.1-2.4,2.4-2.4
				c1.3,0,2.4,1.1,2.4,2.4v33.3C169.2,643.7,168.2,644.8,166.9,644.8z M166.9,587.7c-1.3,0-2.4-1.1-2.4-2.4v-33.3
				c0-1.3,1.1-2.4,2.4-2.4c1.3,0,2.4,1.1,2.4,2.4v33.3C169.2,586.7,168.2,587.7,166.9,587.7z M166.9,530.7c-1.3,0-2.4-1.1-2.4-2.4
				V495c0-1.3,1.1-2.4,2.4-2.4c1.3,0,2.4,1.1,2.4,2.4v33.3C169.2,529.6,168.2,530.7,166.9,530.7z M166.9,473.7
				c-1.3,0-2.4-1.1-2.4-2.4V438c0-1.3,1.1-2.4,2.4-2.4c1.3,0,2.4,1.1,2.4,2.4v33.3C169.2,472.6,168.2,473.7,166.9,473.7z
				 M166.9,416.6c-1.3,0-2.4-1.1-2.4-2.4V381c0-1.3,1.1-2.4,2.4-2.4c1.3,0,2.4,1.1,2.4,2.4v33.3
				C169.2,415.6,168.2,416.6,166.9,416.6z M166.9,359.6c-1.3,0-2.4-1.1-2.4-2.4v-33.3c0-1.3,1.1-2.4,2.4-2.4c1.3,0,2.4,1.1,2.4,2.4
				v33.3C169.2,358.5,168.2,359.6,166.9,359.6z"/>
		</g>
	</g>
	<g>
		<g>
			<path fill="#F1F2F2" d="M213.1,899.5c-6.7,0-13.4-0.8-19.8-2.3c-1.3-0.3-2.1-1.6-1.8-2.9c0.3-1.3,1.6-2.1,2.9-1.8
				c10.7,2.5,22.2,2.8,33,0.9c1.3-0.3,2.5,0.6,2.8,1.9c0.2,1.3-0.6,2.5-1.9,2.8C223.3,899.1,218.2,899.5,213.1,899.5z M250.9,890.5
				c-0.9,0-1.7-0.5-2.1-1.3c-0.6-1.2-0.1-2.6,1-3.2c10-5,18.7-11.9,25.9-20.5c0.8-1,2.3-1.1,3.3-0.3c1,0.8,1.1,2.3,0.3,3.3
				c-7.6,9.1-16.8,16.4-27.4,21.7C251.6,890.5,251.3,890.5,250.9,890.5z M171.2,888.3c-0.4,0-0.8-0.1-1.2-0.3
				c-10.2-5.9-19-13.7-26.1-23.2c-0.8-1.1-0.6-2.5,0.5-3.3c1.1-0.8,2.5-0.6,3.3,0.5c6.7,9,15,16.3,24.7,21.9
				c1.1,0.7,1.5,2.1,0.9,3.3C172.8,887.9,172,888.3,171.2,888.3z M290.3,848.7c-0.3,0-0.6-0.1-0.9-0.2c-1.2-0.5-1.8-1.9-1.2-3.1
				c4.4-10.2,6.6-21.1,6.6-32.3c0-1.3,1.1-2.5,2.4-2.5c1.3,0,2.4,0.9,2.4,2.2v0.3c0,11.9-2.4,23.4-7,34.2
				C292.1,848.2,291.2,848.7,290.3,848.7z M134.2,844.4c-1,0-1.9-0.6-2.2-1.6c-3.5-9.5-5.2-19.5-5.2-29.7c0-1.6,0-3.2,0.1-4.8
				c0.1-1.3,1.1-2.4,2.5-2.2c1.3,0.1,2.3,1.2,2.2,2.5c-0.1,1.5-0.1,3-0.1,4.6c0,9.6,1.7,19.1,5,28.1c0.5,1.2-0.2,2.6-1.4,3
				C134.8,844.3,134.5,844.4,134.2,844.4z M293.5,791.1c-1,0-2-0.7-2.3-1.7c-3.2-10.7-8.6-20.4-15.8-29c-0.8-1-0.7-2.5,0.3-3.4
				c1-0.8,2.5-0.7,3.4,0.3c7.7,9.1,13.3,19.4,16.7,30.7c0.4,1.3-0.3,2.6-1.6,3C294,791,293.8,791.1,293.5,791.1z M134.1,786.9
				c-0.3,0-0.5,0-0.8-0.1c-1.2-0.5-1.9-1.8-1.4-3c4-11.1,10.2-21.1,18.3-29.8c0.9-1,2.4-1,3.4-0.1c1,0.9,1,2.4,0.1,3.4
				c-7.7,8.2-13.5,17.6-17.3,28.1C136,786.3,135.1,786.9,134.1,786.9z M259,745.1c-0.5,0-0.9-0.1-1.3-0.4
				c-9.4-6.1-19.7-10.2-30.7-12.1c-1.3-0.2-2.2-1.5-1.9-2.7c0.2-1.3,1.4-2.2,2.7-1.9c11.6,2,22.6,6.3,32.5,12.8
				c1.1,0.7,1.4,2.2,0.7,3.3C260.6,744.7,259.8,745.1,259,745.1z M170.9,742.8c-0.8,0-1.6-0.4-2.1-1.2c-0.7-1.1-0.3-2.6,0.9-3.2
				c10.2-6,21.4-9.7,33.1-11.1c1.2-0.2,2.5,0.8,2.6,2.1c0.2,1.3-0.8,2.5-2.1,2.6c-11.1,1.3-21.6,4.8-31.3,10.5
				C171.7,742.7,171.3,742.8,170.9,742.8z"/>
		</g>
	</g>
	<g>
		<g>
			<path fill="#F1F2F2" d="M1187.3,506.5c-17.5,0-33.9-6.8-46.2-19.1c-0.9-0.9-0.9-2.4,0-3.4l89.1-89.1c0.9-0.9,2.4-0.9,3.4,0
				c12.3,12.3,19.1,28.8,19.1,46.2C1252.6,477.1,1223.3,506.5,1187.3,506.5z M1146.1,485.6c11.2,10.4,25.7,16.1,41.1,16.1
				c33.4,0,60.6-27.2,60.6-60.6c0-15.4-5.7-29.9-16.1-41.1L1146.1,485.6z"/>
		</g>
	</g>
	<g>
		<g>
			<path fill="#F1F2F2" d="M1142.7,488c-0.6,0-1.2-0.2-1.7-0.7c-12.3-12.3-19.1-28.8-19.1-46.2c0-36,29.3-65.4,65.4-65.4
				c1.3,0,2.4,1.1,2.4,2.4v63c0,0.6-0.3,1.2-0.7,1.7l-44.5,44.5C1144,487.8,1143.3,488,1142.7,488z M1184.9,380.5
				c-32.3,1.3-58.2,27.9-58.2,60.6c0,15.4,5.7,29.9,16.1,41.1l42.1-42.1V380.5z"/>
		</g>
	</g>
	<g>
		<g>
			<path fill="#545557" d="M1187.3,359.1v19v63l44.5-44.5l13.4-13.4C1230.4,368.3,1209.9,359.1,1187.3,359.1z"/>
		</g>
		<g>
			<path fill="#F1F2F2" d="M1187.3,443.5c-0.3,0-0.6-0.1-0.9-0.2c-0.9-0.4-1.5-1.2-1.5-2.2v-82c0-1.3,1.1-2.4,2.4-2.4
				c22.5,0,43.7,8.8,59.7,24.7c0.9,0.9,0.9,2.4,0,3.4l-58,58C1188.5,443.2,1187.9,443.5,1187.3,443.5z M1189.7,361.5v73.9l52.2-52.2
				C1227.6,369.7,1209.2,362.1,1189.7,361.5z"/>
		</g>
	</g>
	<g>
		<g>
			<path fill="#F1F2F2" d="M637.8,471.6h-91.1c-1.3,0-2.4-1.1-2.4-2.4s1.1-2.4,2.4-2.4h91.1c1.3,0,2.4,1.1,2.4,2.4
				S639.1,471.6,637.8,471.6z"/>
		</g>
	</g>
	<g>
		<g>
			<path fill="#F1F2F2" d="M609.3,522.3h-34.1c-1.3,0-2.4-1.1-2.4-2.4c0-1.3,1.1-2.4,2.4-2.4h34.1c1.3,0,2.4,1.1,2.4,2.4
				C611.7,521.2,610.6,522.3,609.3,522.3z"/>
		</g>
	</g>
	<g>
		<g>
			<g>
				<polygon fill="#545557" points="381.3,798.8 493,791.4 423.7,879.3 420.8,829.4 				"/>
			</g>
			<g>
				<path fill="#F1F2F2" d="M423.7,881.6c-0.2,0-0.5,0-0.7-0.1c-0.9-0.3-1.6-1.1-1.7-2.1l-2.9-48.8l-38.6-30
					c-0.8-0.6-1.1-1.6-0.8-2.6c0.3-0.9,1.1-1.6,2.1-1.7l111.7-7.4c0.9-0.1,1.8,0.4,2.3,1.3c0.4,0.8,0.3,1.8-0.2,2.6l-69.4,87.9
					C425.1,881.3,424.4,881.6,423.7,881.6z M387.7,800.8l34.5,26.8c0.5,0.4,0.9,1.1,0.9,1.7l2.5,43.6l62.2-78.8L387.7,800.8z"/>
			</g>
		</g>
		<g>
			<g>
				<line fill="#FFFFFF" x1="420.8" y1="829.4" x2="365.5" y2="858.5"/>
			</g>
			<g>
				<path fill="#F1F2F2" d="M365.5,860.9c-0.9,0-1.7-0.5-2.1-1.3c-0.6-1.2-0.2-2.6,1-3.2l55.2-29.1c1.2-0.6,2.6-0.2,3.2,1
					c0.6,1.2,0.2,2.6-1,3.2l-55.2,29C366.3,860.8,365.9,860.9,365.5,860.9z"/>
			</g>
		</g>
	</g>
	<g>
		<g>
			<path fill="#F1F2F2" d="M559.3,814.3c-0.2,0-0.5,0-0.7-0.1c-1.3-0.4-2-1.7-1.6-3c10.9-35.3-8.8-72.8-44.1-83.8
				c-1.3-0.4-2-1.7-1.6-3c0.4-1.3,1.7-2,3-1.6c37.8,11.7,59,52,47.2,89.7C561.2,813.7,560.3,814.3,559.3,814.3z"/>
		</g>
	</g>
	<g>
		<g>
			<path fill="#F1F2F2" d="M581.7,821.3c-0.2,0-0.5,0-0.7-0.1c-1.3-0.4-2-1.7-1.6-3c7.2-23.1,4.9-47.6-6.4-69
				c-11.3-21.4-30.2-37.1-53.3-44.3c-1.3-0.4-2-1.7-1.6-3c0.4-1.2,1.7-2,3-1.6c24.3,7.5,44.2,24.1,56.1,46.6
				c11.8,22.5,14.2,48.3,6.7,72.6C583.7,820.6,582.8,821.3,581.7,821.3z"/>
		</g>
	</g>
	<g>
		<g>
			<path fill="#F1F2F2" d="M1041.1,147.7H916.3c-1.3,0-2.4-1.1-2.4-2.4c0-1.3,1.1-2.4,2.4-2.4h124.8c1.3,0,2.4,1.1,2.4,2.4
				C1043.5,146.6,1042.4,147.7,1041.1,147.7z"/>
		</g>
	</g>
	<g>
		<g>
			<path fill="#F1F2F2" d="M1041.1,185h-71.3c-1.3,0-2.4-1.1-2.4-2.4c0-1.3,1.1-2.4,2.4-2.4h71.3c1.3,0,2.4,1.1,2.4,2.4
				C1043.5,183.9,1042.4,185,1041.1,185z"/>
		</g>
	</g>
</g>
</svg>
